<?xml version="1.0" encoding="utf-8"?>
<!-- Generator: Adobe Illustrator 22.1.0, SVG Export Plug-In . SVG Version: 6.00 Build 0)  -->
<svg version="1.1" id="Ebene_3" xmlns="http://www.w3.org/2000/svg" xmlns:xlink="http://www.w3.org/1999/xlink" x="0px" y="0px"
	 viewBox="0 0 219.1 154.1" style="enable-background:new 0 0 219.1 154.1;" xml:space="preserve">
<style type="text/css">
	.st0{fill:#CA1A81;}
</style>
<title>backpfeil</title>
<path id="Back-Arrow" class="st0" d="M71.6,151.7c3,3,7.9,3.1,11,0.1s3.1-7.9,0.1-11l0,0l-56-56h184.8c4.2,0,7.7-3.4,7.7-7.7
	c0,0,0-0.1,0-0.1c0-4.3-3.4-7.8-7.7-7.8c0,0,0,0,0,0H26.6l56-55.9c3-3.1,3-8,0-11c-3-3-7.9-3.1-10.9-0.1c0,0-0.1,0.1-0.1,0.1
	L2.3,71.6c-3,2.9-3.1,7.7-0.2,10.8c0.1,0.1,0.1,0.1,0.2,0.2L71.6,151.7z"/>
</svg>
