<?xml version="1.0" encoding="utf-8"?>
<!-- Generator: Adobe Illustrator 22.1.0, SVG Export Plug-In . SVG Version: 6.00 Build 0)  -->
<svg version="1.1" id="close" xmlns="http://www.w3.org/2000/svg" xmlns:xlink="http://www.w3.org/1999/xlink" x="0px" y="0px"
	 viewBox="0 0 163.9 163.9" style="enable-background:new 0 0 163.9 163.9;" xml:space="preserve">
<style type="text/css">
	.st0{fill:none;stroke:#CA1A81;stroke-width:6;stroke-miterlimit:10;}
	.st1{fill:#CA1A81;}
</style>
<title>close</title>
<g id="Header">
	<g id="back_button">
		<circle id="Circle" class="st0" cx="82" cy="82" r="79"/>
		<path class="st1" d="M113.8,50.1c-1-1-2.7-1-3.7,0c0,0,0,0,0,0l-60,60c-1,1-1,2.7,0,3.7c1,1,2.7,1,3.7,0l0,0l60-60
			C114.9,52.8,114.9,51.1,113.8,50.1z"/>
		<path class="st1" d="M113.8,110.1l-60-60c-1-1-2.7-1-3.7,0c-1,1-1,2.7,0,3.7l0,0l60,60c1,1,2.7,1,3.7,0
			C114.9,112.8,114.9,111.2,113.8,110.1C113.8,110.1,113.8,110.1,113.8,110.1z"/>
	</g>
</g>
</svg>
