<svg id="Ebene_1" data-name="Ebene 1" xmlns="http://www.w3.org/2000/svg" viewBox="0 0 318.02232 55.15882"><title>logo_black</title><path d="M56.76557,15.95134V69.732h-5.8568V63.78981a17.96354,17.96354,0,0,1-6.11429,5.38253,16.5186,16.5186,0,0,1-7.922,1.93781,19.59732,19.59732,0,0,1-10.33414-2.75629A19.18117,19.18117,0,0,1,19.39005,60.69a23.674,23.674,0,0,1-2.58419-11.19531A23.55623,23.55623,0,0,1,19.3467,38.42874a19.05994,19.05994,0,0,1,7.06284-7.62119A19.37307,19.37307,0,0,1,36.699,28.05191a16.951,16.951,0,0,1,8.05342,1.93716,17.54,17.54,0,0,1,6.15634,5.46858V15.95134ZM44.0627,63.70376A13.92845,13.92845,0,0,0,49.101,57.93433a18.79753,18.79753,0,0,0,1.80775-8.35363,18.79863,18.79863,0,0,0-1.80775-8.353,13.93838,13.93838,0,0,0-5.03832-5.77009A13.36715,13.36715,0,0,0,36.699,33.39108a12.999,12.999,0,0,0-7.23363,2.06657,14.10513,14.10513,0,0,0-4.995,5.72673,18.52911,18.52911,0,0,0-1.80775,8.31027,18.9984,18.9984,0,0,0,1.80775,8.43968,14.04033,14.04033,0,0,0,4.995,5.76943A12.99422,12.99422,0,0,0,36.699,65.771,13.36216,13.36216,0,0,0,44.0627,63.70376Z" transform="translate(-16.80586 -15.95134)"/><path d="M94.82688,30.7215a18.89279,18.89279,0,0,1,6.88942,7.27633,21.24811,21.24811,0,0,1,2.49748,10.29143q0,1.63663-.0867,2.49749H70.97271A17.457,17.457,0,0,0,75.02044,61.379,12.4843,12.4843,0,0,0,85.09576,65.771a17.12788,17.12788,0,0,0,8.56843-1.93781,14.88293,14.88293,0,0,0,5.46792-5.38253l4.65076,3.1005a20.20821,20.20821,0,0,1-7.49113,7.01818,22.6747,22.6747,0,0,1-11.02387,2.54083,19.7559,19.7559,0,0,1-10.41953-2.75629A19.18117,19.18117,0,0,1,67.7001,60.69,23.488,23.488,0,0,1,65.11591,49.5807a23.81106,23.81106,0,0,1,2.54084-11.1086,18.98747,18.98747,0,0,1,7.06284-7.66455,19.373,19.373,0,0,1,10.28947-2.75564A18.53671,18.53671,0,0,1,94.82688,30.7215ZM98.357,45.96389q-.86118-6.28542-4.21984-9.42961-3.358-3.14319-9.12809-3.1432a12.41619,12.41619,0,0,0-9.17014,3.57346,16.33925,16.33925,0,0,0-4.522,8.99935Z" transform="translate(-16.80586 -15.95134)"/><path d="M143.267,30.80755a19.06605,19.06605,0,0,1,7.06153,7.62119,23.55622,23.55622,0,0,1,2.54083,11.06591A23.65841,23.65841,0,0,1,150.28516,60.69a19.178,19.178,0,0,1-7.14692,7.6639,19.60388,19.60388,0,0,1-10.33414,2.75629,16.50744,16.50744,0,0,1-7.922-1.93781,17.9392,17.9392,0,0,1-6.1143-5.38253V69.732H112.911V15.95134h5.8568V35.45765a17.4948,17.4948,0,0,1,6.15634-5.46858,16.94206,16.94206,0,0,1,8.05211-1.93716A19.38093,19.38093,0,0,1,143.267,30.80755Zm-3.05715,32.89621a14.03071,14.03071,0,0,0,4.995-5.76943,18.99874,18.99874,0,0,0,1.80907-8.43968,18.52954,18.52954,0,0,0-1.80907-8.31027,14.09536,14.09536,0,0,0-4.995-5.72673,13.00524,13.00524,0,0,0-7.23363-2.06657,13.37343,13.37343,0,0,0-7.3637,2.06657,13.9448,13.9448,0,0,0-5.037,5.77009,18.7808,18.7808,0,0,0-1.80775,8.353,18.7797,18.7797,0,0,0,1.80775,8.35363,13.93485,13.93485,0,0,0,5.037,5.76943,13.36843,13.36843,0,0,0,7.3637,2.06722A13.00041,13.00041,0,0,0,140.20984,63.70376Z" transform="translate(-16.80586 -15.95134)"/><path d="M163.28889,69.732V34.76857h-6.88943V29.4294h6.88943V16.08147h5.85417V29.4294h9.30151v5.33917h-9.30151V69.732Z" transform="translate(-16.80586 -15.95134)"/><path d="M210.76438,28.65428v5.33917a9.12073,9.12073,0,0,0-3.96234-.86118,12.41642,12.41642,0,0,0-6.88942,2.06722,14.67326,14.67326,0,0,0-5.12372,5.98489,20.67281,20.67281,0,0,0-1.9365,9.2575V69.732h-5.8568V29.4294h5.8568v8.09481a18.94808,18.94808,0,0,1,5.89884-6.97482,13.72048,13.72048,0,0,1,8.0508-2.49748A13.03015,13.03015,0,0,1,210.76438,28.65428Z" transform="translate(-16.80586 -15.95134)"/><path d="M251.46931,29.4294V69.732h-5.85549V63.78981a17.9756,17.9756,0,0,1-6.1143,5.38253,16.51631,16.51631,0,0,1-7.92336,1.93781A19.59732,19.59732,0,0,1,221.242,68.35386,19.18719,19.18719,0,0,1,214.0951,60.69a23.67351,23.67351,0,0,1-2.58288-11.19531,23.54037,23.54037,0,0,1,2.54084-11.06591,19.0538,19.0538,0,0,1,7.06021-7.62119,19.38233,19.38233,0,0,1,10.2921-2.75564,16.94435,16.94435,0,0,1,8.0508,1.93716,17.53276,17.53276,0,0,1,6.15765,5.46858V29.4294ZM238.76775,63.70376a13.92568,13.92568,0,0,0,5.037-5.76943,18.78017,18.78017,0,0,0,1.80906-8.35363,18.78127,18.78127,0,0,0-1.80906-8.353,13.93561,13.93561,0,0,0-5.037-5.77009,13.36586,13.36586,0,0,0-7.36238-2.06657,12.996,12.996,0,0,0-7.23363,2.06657,14.0858,14.0858,0,0,0-4.995,5.72673,18.51206,18.51206,0,0,0-1.80906,8.31027,18.98087,18.98087,0,0,0,1.80906,8.43968,14.0213,14.0213,0,0,0,4.995,5.76943,12.99115,12.99115,0,0,0,7.23363,2.06722A13.36087,13.36087,0,0,0,238.76775,63.70376Z" transform="translate(-16.80586 -15.95134)"/><path d="M269.38128,68.35386A19.18117,19.18117,0,0,1,262.233,60.69a23.488,23.488,0,0,1-2.58419-11.10926,23.81118,23.81118,0,0,1,2.54084-11.1086,18.8881,18.8881,0,0,1,7.10488-7.66455,19.60285,19.60285,0,0,1,10.33414-2.75564,16.85924,16.85924,0,0,1,8.56842,2.10992,23.22219,23.22219,0,0,1,6.674,5.98489l-4.30655,3.35866q-4.21918-6.114-10.93584-6.1143a13.21444,13.21444,0,0,0-7.277,2.06657,13.93852,13.93852,0,0,0-5.03832,5.77009,18.7808,18.7808,0,0,0-1.80775,8.353,18.7797,18.7797,0,0,0,1.80775,8.35363,13.92859,13.92859,0,0,0,5.03832,5.76943,13.2095,13.2095,0,0,0,7.277,2.06722,14.40428,14.40428,0,0,0,6.80271-1.4215,15.25872,15.25872,0,0,0,4.82286-4.17648l4.56405,3.18655a21.09309,21.09309,0,0,1-7.01817,5.64068,20.685,20.685,0,0,1-19.41888-.64637Z" transform="translate(-16.80586 -15.95134)"/><path d="M328.283,69.732l-14.123-20.75432-4.90826,4.73681V69.732h-5.85548V15.95134h5.85548V46.3081l17.65448-16.8787H334.484L318.209,45.10271,334.82818,69.732Z" transform="translate(-16.80586 -15.95134)"/></svg>