<svg id="plus" xmlns="http://www.w3.org/2000/svg" viewBox="0 0 177.81474 177.91092"><defs><style>.cls-1{fill:#fff;}</style></defs><title>plus</title><path class="cls-1" d="M106.34846,157.97373a6.32449,6.32449,0,0,1-6.28606-6.37659,6.24727,6.24727,0,0,1,6.28606-6.28607h76.24188V69.06354a6.4101,6.4101,0,0,1,6.38225-6.37659,6.32451,6.32451,0,0,1,6.28607,6.37659v76.24753h76.24188a6.32451,6.32451,0,0,1,6.37659,6.28607,6.40156,6.40156,0,0,1-6.37659,6.37659H195.25866v76.24753a6.32452,6.32452,0,0,1-6.28607,6.3766,6.40156,6.40156,0,0,1-6.37659-6.3766V157.97373Z" transform="translate(-100.0624 -62.68695)"/></svg>