<?xml version="1.0" standalone="no"?>
<!DOCTYPE svg PUBLIC "-//W3C//DTD SVG 20010904//EN"
 "http://www.w3.org/TR/2001/REC-SVG-20010904/DTD/svg10.dtd">
<svg version="1.0" xmlns="http://www.w3.org/2000/svg"
 width="501.000000pt" height="501.000000pt" viewBox="0 0 501.000000 501.000000"
 preserveAspectRatio="xMidYMid meet">
<metadata>
Created by potrace 1.11, written by Peter Selinger 2001-2013
</metadata>
<g transform="translate(0.000000,501.000000) scale(0.100000,-0.100000)"
fill="#000000" stroke="none">
<path d="M2349 4916 c-2 -2 -42 -7 -89 -11 -46 -3 -87 -8 -90 -10 -3 -1 -27
-6 -55 -9 -27 -4 -102 -20 -165 -36 -340 -85 -624 -222 -895 -429 -94 -72
-132 -107 -251 -227 -385 -389 -621 -888 -682 -1444 -9 -86 -8 -418 2 -500 11
-95 48 -297 61 -340 3 -10 8 -27 10 -38 8 -46 79 -244 122 -341 278 -640 856
-1150 1521 -1342 93 -27 267 -66 327 -73 28 -4 82 -10 120 -15 91 -11 386 -11
495 0 107 12 264 41 385 73 211 55 509 191 701 319 116 78 121 82 239 183 385
331 660 784 774 1276 20 86 23 102 36 188 12 80 14 94 20 156 8 74 8 319 1
394 -13 141 -17 170 -32 250 -49 270 -166 585 -290 782 -13 21 -24 40 -24 42
0 11 -119 179 -185 261 -308 380 -736 665 -1202 799 -119 34 -287 69 -393 82
-65 7 -454 16 -461 10z m341 -170 c327 -25 621 -111 905 -265 623 -337 1051
-947 1156 -1646 38 -257 28 -556 -26 -805 -4 -14 -8 -35 -10 -46 -40 -188
-154 -460 -278 -664 -211 -346 -580 -678 -932 -839 -22 -10 -65 -30 -95 -44
-135 -62 -378 -131 -535 -153 -22 -3 -65 -9 -95 -14 -147 -22 -548 -4 -687 30
-22 5 -58 13 -80 16 -71 11 -327 101 -443 156 -591 280 -1024 794 -1209 1433
-57 198 -79 381 -76 635 2 113 5 216 8 230 3 14 11 59 17 100 117 753 639
1409 1360 1712 119 50 328 114 435 132 74 13 178 26 250 31 44 3 80 7 81 8 4
4 170 -1 254 -7z"/>
<path d="M2508 4343 c-41 -10 -44 -35 -43 -325 0 -256 2 -278 19 -297 24 -26
60 -27 86 -1 19 19 20 33 20 303 0 273 -1 285 -20 302 -22 20 -35 24 -62 18z"/>
<path d="M1209 3799 c-44 -44 -32 -61 179 -270 108 -108 205 -199 215 -202 24
-9 65 12 73 35 3 11 3 29 0 41 -3 12 -93 109 -200 216 -205 204 -227 220 -267
180z"/>
<path d="M3772 3804 c-27 -19 -392 -383 -393 -392 0 -4 -2 -15 -4 -26 -2 -10
7 -29 20 -41 12 -13 31 -22 41 -20 11 2 22 4 26 4 10 1 376 369 394 396 18 27
6 68 -25 84 -26 14 -32 14 -59 -5z"/>
<path d="M929 2856 c-1 -23 -1 -78 -1 -124 l1 -83 -40 35 c-98 84 -264 63
-346 -43 -67 -87 -79 -223 -28 -326 73 -150 268 -188 388 -76 26 24 29 24 27
6 -6 -51 -2 -56 38 -53 l37 3 0 348 c0 191 -2 348 -5 348 -3 1 -20 2 -37 4
-32 2 -33 1 -34 -39z m-99 -217 c88 -49 122 -183 73 -286 -30 -64 -84 -101
-158 -108 -24 -2 -83 19 -111 40 -69 52 -92 193 -46 282 48 92 151 122 242 72z"/>
<path d="M1742 2885 c-4 -5 -7 -164 -7 -352 l0 -343 37 0 c39 0 42 4 38 50
l-2 25 29 -26 c57 -52 84 -62 158 -63 110 0 193 53 238 153 32 72 29 191 -7
264 -48 98 -135 149 -243 142 -57 -4 -104 -24 -145 -62 l-26 -25 -1 114 c0 62
0 118 0 124 -1 14 -60 13 -69 -1z m338 -244 c20 -10 48 -38 65 -66 26 -42 30
-57 30 -121 -1 -62 -5 -78 -30 -120 -36 -56 -90 -88 -150 -87 -119 2 -202 120
-176 251 19 95 63 143 146 162 39 9 72 3 115 -19z"/>
<path d="M2402 2892 c-8 -2 -12 -31 -12 -88 l0 -84 -45 0 c-45 0 -45 0 -45
-35 0 -37 7 -40 68 -35 l22 1 0 -230 0 -231 40 0 40 0 0 229 0 229 60 -1 60
-2 0 37 0 38 -60 0 -60 0 0 85 c0 47 -3 85 -7 86 -5 0 -17 2 -28 3 -12 1 -26
1 -33 -2z"/>
<path d="M4219 2895 c-1 0 -2 -159 -3 -352 l-1 -353 40 0 41 0 -1 103 c-1 100
0 103 30 135 l30 34 90 -135 90 -136 48 0 48 -1 -109 161 -109 161 106 104
106 104 -50 0 -51 0 -109 -105 c-61 -57 -112 -104 -115 -105 -3 0 -5 84 -5
186 0 102 -2 188 -5 192 -4 6 -60 11 -71 7z"/>
<path d="M1283 2722 c-143 -42 -215 -250 -140 -404 85 -174 327 -196 459 -42
17 20 17 21 -13 43 l-31 23 -26 -30 c-41 -45 -89 -65 -153 -64 -88 0 -131 29
-168 112 -38 83 -48 78 190 78 115 0 212 1 214 3 2 2 4 18 6 34 9 105 -71 220
-174 249 -60 17 -100 17 -164 -2z m184 -80 c26 -14 73 -90 73 -119 0 -18 -8
-19 -166 -20 -186 -2 -189 -1 -155 65 45 88 159 122 248 74z"/>
<path d="M2891 2723 c-20 -7 -53 -30 -73 -52 l-38 -40 -1 27 c-3 56 -3 57 -41
60 l-38 3 0 -265 0 -266 39 0 39 0 0 150 c1 89 6 167 14 192 24 82 116 146
191 133 27 -5 33 4 27 45 -4 32 -49 37 -119 13z"/>
<path d="M3185 2718 c-62 -20 -126 -88 -149 -155 -20 -59 -21 -156 0 -215 33
-97 124 -166 226 -173 64 -4 114 12 165 53 l39 30 -4 -34 c-4 -34 -4 -34 37
-34 26 0 41 5 42 13 1 17 1 489 0 505 -1 9 -14 12 -41 10 -30 -1 -40 -6 -39
-17 4 -48 0 -50 -33 -20 -36 33 -116 61 -163 57 -17 -2 -52 -10 -80 -20z m175
-73 c62 -33 100 -104 100 -190 0 -61 -19 -117 -53 -153 -85 -91 -228 -67 -287
48 -24 48 -24 162 0 210 48 93 153 130 240 85z"/>
<path d="M3832 2725 c-118 -36 -184 -133 -184 -272 0 -118 55 -213 149 -255
96 -43 207 -27 283 40 l43 38 -32 20 -32 21 -30 -28 c-17 -16 -45 -31 -62 -34
-18 -3 -44 -7 -59 -9 -16 -3 -47 5 -75 20 -75 37 -114 112 -107 206 5 59 15
86 49 126 36 43 76 63 129 64 47 1 78 -12 118 -50 26 -24 28 -24 53 -8 34 23
32 39 -14 75 -69 55 -147 70 -229 46z"/>
<path d="M1391 1429 c-213 -212 -227 -233 -183 -272 43 -39 60 -28 272 184
137 138 200 208 200 223 0 35 -28 66 -60 66 -23 0 -62 -34 -229 -201z"/>
<path d="M3392 1610 c-39 -42 -24 -63 185 -272 154 -155 203 -198 223 -198 34
0 56 18 64 54 7 28 -5 41 -196 233 -217 216 -234 228 -276 183z"/>
<path d="M2497 1244 c-15 -8 -28 -20 -28 -27 -1 -7 -2 -135 -3 -286 -1 -252 0
-276 17 -298 23 -28 60 -30 87 -3 19 19 20 33 20 303 0 258 -2 285 -17 299
-28 24 -47 27 -76 12z"/>
</g>
</svg>
